<svg xmlns="http://www.w3.org/2000/svg" viewBox="0 0 1024 1024" role="img" aria-label="React on Rails — Balanced facets + tip — reduced tilt icon">
<title>React on Rails — Balanced facets + tip — reduced tilt icon</title>
<rect x="64" y="64" width="896" height="896" rx="192" fill="#0B1118" stroke="#26313D" stroke-width="12"/>
<g>
<g fill="none" stroke="#00D8FF" stroke-width="45" stroke-linecap="round" stroke-linejoin="round">
  <ellipse cx="512" cy="512" rx="318" ry="118"/>
  <ellipse cx="512" cy="512" rx="318" ry="118" transform="rotate(60 512 512)"/>
  <ellipse cx="512" cy="512" rx="318" ry="118" transform="rotate(-60 512 512)"/>
</g>
<g transform="translate(512 505) rotate(-3) scale(1.05)">

<path d="M-178 -54 L-112 -124 L112 -124 L178 -54 L92 80 L0 140 L-92 80 Z" fill="#EC221E"/>
<path d="M-178 -54 L-112 -124 L-55 -20 Z" fill="#FF342A"/>
<path d="M-112 -124 L112 -124 L55 -20 L-55 -20 Z" fill="#F72B23"/>
<path d="M112 -124 L178 -54 L55 -20 Z" fill="#A81510" opacity="0.94"/>
<path d="M-178 -54 L-55 -20 L-92 80 Z" fill="#D8201B"/>
<path d="M-92 80 L-55 -20 L55 -20 L0 140 Z" fill="#E9231D"/>
<path d="M55 -20 L178 -54 L92 80 L0 140 Z" fill="#76100C" opacity="0.78"/>
<path d="M-76 -18 C-28 -48 40 -51 91 -28" fill="none" stroke="#FFB6AD" stroke-width="16" stroke-linecap="round" opacity="0.32"/>
<path d="M-112 -124 L-55 -20 L55 -20 L112 -124" fill="none" stroke="#FFFFFF" stroke-width="7" stroke-linecap="round" stroke-linejoin="round" opacity="0.08"/>

</g>
</g>
<g transform="translate(512 648)">
  <rect x="-58" y="-28" width="116" height="56" rx="18" fill="#0B1118" stroke="#FFFFFF" stroke-width="5" opacity="0.94"/>
  <text x="0" y="9" text-anchor="middle" font-family="Inter, ui-sans-serif, system-ui, -apple-system, BlinkMacSystemFont, 'Segoe UI', sans-serif" font-weight="800" font-size="28" fill="#FFFFFF" letter-spacing="1.5">PRO</text>
</g>
</svg>