<svg xmlns="http://www.w3.org/2000/svg" width="1227.121" viewBox="0 0 1227.121 257.137">
  <g transform="translate(-11.197)">
    <path d="M201.16,72.23V257.137H177.325V217.41c-15.167,24.2-40.809,39.727-72.951,39.727-50.922,0-93.177-41.171-93.177-94.621S53.452,67.9,104.374,67.9c32.142,0,57.784,15.529,72.951,39.726V72.23Zm-23.835,90.286c0-40.087-31.058-71.507-71.146-71.507s-71.145,31.42-71.145,71.507,31.058,71.507,71.145,71.507S177.325,202.6,177.325,162.516Z"></path>
    <path d="M265.885,72.23H289.72V257.137H265.885Z"></path>
    <path d="M431.915,69.34V92.454c-28.892,0-57.062,15.168-57.062,59.95V257.137H351.018V72.23h23.835v29.975C387.494,76.925,408.8,69.34,431.915,69.34Z"></path>
    <path d="M562.917,69.34V92.454c-28.893,0-57.062,15.168-57.062,59.95V257.137H482.02V72.23h23.835v29.975C518.495,76.925,539.8,69.34,562.917,69.34Z"></path>
    <path d="M584.489,162.516c0-53.449,42.255-94.62,94.982-94.62s94.981,41.171,94.981,94.62-42.253,94.621-94.981,94.621S584.489,215.966,584.489,162.516Zm166.128,0c0-40.087-31.058-71.507-71.146-71.507s-71.145,31.42-71.145,71.507,31.058,71.507,71.145,71.507S750.617,202.6,750.617,162.516Z"></path>
    <path d="M1014.873,162.516c0,53.45-42.255,94.621-93.176,94.621-32.142,0-57.783-15.53-72.952-39.727v39.727H824.91V0h23.835V107.622C863.914,83.425,889.555,67.9,921.7,67.9,972.618,67.9,1014.873,109.067,1014.873,162.516Zm-23.835,0c0-40.087-31.06-71.507-71.146-71.507s-71.147,31.42-71.147,71.507,31.06,71.507,71.147,71.507S991.038,202.6,991.038,162.516Z"></path>
    <path d="M1238.318,163.239c0,3.611-.36,7.584-.721,11.2H1079.053c5.056,36.837,33.587,59.589,71.868,59.589,28.53,0,48.393-13.362,58.145-30.7l20.946,12.279c-15.167,24.558-42.976,41.532-79.452,41.532-57.061,0-96.065-40.088-96.065-94.621,0-53.088,38.282-94.62,94.26-94.62C1204.01,67.9,1238.318,113.762,1238.318,163.239Zm-159.265-11.918h134.708c-5.057-39.726-33.948-60.312-65.006-60.312C1110.835,91.009,1083.747,115.929,1079.053,151.321Z"></path>
  </g>
</svg>