<svg xmlns="http://www.w3.org/2000/svg" width="76" height="36"><defs><linearGradient id="a" x1="-.15%" x2="100.588%" y1="64.697%" y2="44.929%"><stop offset="0%" stop-color="#5DA9DD"/><stop offset=".404%" stop-color="#5DA8DC"/><stop offset="23.44%" stop-color="#3B83C1"/><stop offset="45.56%" stop-color="#1C6CAF"/><stop offset="66.26%" stop-color="#005DA4"/><stop offset="84.99%" stop-color="#00559E"/><stop offset="100%" stop-color="#00529C"/></linearGradient><linearGradient id="b" x1=".203%" y1="56.498%" y2="38.205%"><stop offset="0%" stop-color="#5DA9DD"/><stop offset=".404%" stop-color="#5DA8DC"/><stop offset="23.44%" stop-color="#3B83C1"/><stop offset="45.56%" stop-color="#1C6CAF"/><stop offset="66.26%" stop-color="#005DA4"/><stop offset="84.99%" stop-color="#00559E"/><stop offset="100%" stop-color="#00529C"/></linearGradient><linearGradient id="c" x1="-.674%" x2="100.821%" y1="58.473%" y2="44.393%"><stop offset="0%" stop-color="#5DA9DD"/><stop offset=".404%" stop-color="#5DA8DC"/><stop offset="23.44%" stop-color="#3B83C1"/><stop offset="45.56%" stop-color="#1C6CAF"/><stop offset="66.26%" stop-color="#005DA4"/><stop offset="84.99%" stop-color="#00559E"/><stop offset="100%" stop-color="#00529C"/></linearGradient><linearGradient id="d" x1="1.02%" x2="97.33%" y1="32.086%" y2="53.652%"><stop offset="0%" stop-color="#75BEE9"/><stop offset="12.72%" stop-color="#65ADDF"/><stop offset="37.81%" stop-color="#4A93CF"/><stop offset="61.45%" stop-color="#3482C4"/><stop offset="82.85%" stop-color="#2378BE"/><stop offset="100%" stop-color="#1B75BC"/></linearGradient><linearGradient id="e" x1="0%" y1="50%" y2="50%"><stop offset="0%" stop-color="#75BEE9"/><stop offset="12.72%" stop-color="#65ADDF"/><stop offset="37.81%" stop-color="#4A93CF"/><stop offset="61.45%" stop-color="#3482C4"/><stop offset="82.85%" stop-color="#2378BE"/><stop offset="100%" stop-color="#1B75BC"/></linearGradient></defs><g fill="none" fill-rule="evenodd"><path fill="#000F47" d="M43.543 13.447s-14.68-1.73-17.255-3.882c0 0 .247-1.483.212-1.977 0 0 15.455 3.141 21.489.918 0 .035-2.717 3.67-4.446 4.941zM33.91 18.67s-7.481-3.458-8.716-5.646c0 0 .6-1.412.741-2.4 0 0 9.668 5.117 14.15 5.188 0 0-4.693 2.682-6.175 2.859zm-8.504 2.118s-1.941-3.459-2.047-4.8c0 0 1.306-1.482 1.376-1.94 0 0 2.4 5.54 7.834 5.505 0 0-5.434 1.588-7.163 1.235zm-8.61-3.458s6.14-3.918 8.116-7.624c0 0-2.964 2.33-5.081 2.718l-3.035 4.905z"/><path fill="url(#a)" d="M16.76 10.624c-.14.705-.529 2.047-.74 2.4 2.187.529 9.88 2.611 18.419.423 1.835-1.482 3.317-3.282 4.375-4.906-5.963 2.859-10.762 2.647-14.82 2.859-4.34.035-6.28-.53-7.233-.776z" transform="translate(9.174)"/><path fill="url(#b)" d="M14.185 15.988c1.305.6 5.787 2.33 10.55 2.683 2.117-.6 4.34-1.871 6.175-2.86-7.304.248-13.902-1.34-15.349-1.764-.247.53-.988 1.553-1.376 1.941z" transform="translate(9.174)"/><path fill="url(#c)" d="M37.438 1.13s.424.776 1.165 1.764c-4.87 2.294-12.103 5.224-21.278 4.73 0 .952-.07 1.588-.211 1.976 1.2.318 10.409 2.294 23.43-4.376.6.6 1.27 1.129 1.94 1.482L44.813 0l-7.375 1.13z" transform="translate(9.174)"/><path fill="url(#d)" d="M10.656 12.388c-2.928.812-5.504.247-5.504.247-1.588-1.023-2.682.53-2.682.53-2.964.423-2.223 2.33-2.223 2.33l.282.352c.353-1.2 2.753-.635 2.753-.635 1.87.882 3.281 1.553 4.34 2.117 1.517-1.34 2.505-3.035 3.034-4.94z" transform="translate(9.174)"/><path fill="url(#e)" d="m13.409 17.188-1.059-.459c.07-.07.141-.176.247-.247 1.094-1.27 2.294-3.353 3.14-6.776-1.87 1.447-3.599 2.153-3.599 2.153-.035 0-.035.035-.07.035-.565 2.259-1.73 4.306-3.494 5.894.389.177.953.424 1.2.565 0 0 1.094.635 1.73.882 1.587.741 4.551 1.553 4.551 1.553 2.117.424 7.445-1.235 7.445-1.235-3.67-.106-9.315-2.082-10.091-2.365z" transform="translate(9.174)"/><g fill="#1B75BC" stroke="#1D75BC" stroke-width=".5"><path d="M28.052 23.33h4.764v.952h-3.6v2.965h3.353v.953h-3.352v4.024h-1.165z"/><path fill-rule="nonzero" d="m34.862 29.435-.917 2.789h-1.2l3.035-8.86h1.376l3.034 8.86h-1.235l-.952-2.789h-3.14zm2.929-.917-.882-2.542c-.212-.564-.318-1.094-.459-1.623h-.035c-.141.53-.247 1.059-.459 1.623l-.882 2.577h2.717v-.035z"/><path d="M41.496 23.33h1.164v7.905h3.776v.953h-4.94V23.33zm11.891 8.611c-.423.212-1.27.424-2.329.424-2.505 0-4.375-1.589-4.375-4.518 0-2.788 1.87-4.659 4.622-4.659 1.094 0 1.8.247 2.118.388l-.283.918c-.423-.212-1.058-.353-1.764-.353-2.082 0-3.458 1.341-3.458 3.67 0 2.189 1.235 3.565 3.387 3.565.706 0 1.412-.14 1.87-.352l.212.917z"/><path fill-rule="nonzero" d="M62.138 27.67c0 3.036-1.87 4.66-4.128 4.66-2.364 0-3.988-1.836-3.988-4.518 0-2.824 1.73-4.66 4.094-4.66 2.47.036 4.022 1.872 4.022 4.519zm-6.88.142c0 1.906 1.023 3.6 2.858 3.6 1.8 0 2.858-1.66 2.858-3.67 0-1.766-.918-3.636-2.823-3.636-1.94 0-2.894 1.765-2.894 3.706z"/><path d="M63.62 32.224v-8.895h1.27l2.823 4.483c.635 1.023 1.165 1.976 1.588 2.894h.035a39.144 39.144 0 0 1-.14-3.635v-3.742h1.093v8.86h-1.164l-2.823-4.518a28.137 28.137 0 0 1-1.659-2.965h-.035c.07 1.13.07 2.188.07 3.67v3.777H63.62v.07z"/></g><path fill="#000F47" d="M6.88 31.694c-.423.212-1.34.494-2.505.494C1.73 32.224 0 30.424 0 27.741c0-2.682 1.835-4.659 4.693-4.659.953 0 1.764.247 2.223.46l-.353 1.2c-.388-.213-.988-.424-1.835-.424-2.011 0-3.105 1.517-3.105 3.317 0 2.012 1.306 3.283 3.035 3.283.917 0 1.517-.212 1.94-.424l.283 1.2zm3.635-10.906c0 .53-.388.988-1.023.988-.565 0-.953-.423-.953-.988 0-.53.388-.988.988-.988s.988.424.988.988zm-1.764 2.471h1.588v8.753H8.751zm6.139-2.118v2.118h2.294v1.2h-2.293v4.73c0 1.093.317 1.693 1.2 1.693.423 0 .705-.035.917-.106l.07 1.2a4.572 4.572 0 0 1-1.411.212c-.741 0-1.341-.247-1.73-.67-.423-.494-.599-1.27-.599-2.294v-4.765h-1.34v-1.2h1.375v-1.624l1.518-.494zm4.835 2.118 1.905 5.188c.212.565.424 1.27.565 1.8h.035c.176-.53.353-1.2.565-1.835l1.729-5.153h1.693l-2.4 6.247c-1.128 3-1.905 4.518-2.998 5.47-.812.671-1.906.953-2.33 1.024l-.035-1.306a5.21 5.21 0 0 0 1.412-.776 5.343 5.343 0 0 0 1.34-1.765c.071-.177.142-.282.142-.388 0-.106-.035-.212-.141-.424l-3.211-8.082h1.729z"/><path fill="#424142" fill-rule="nonzero" d="M76 22.05c0 1.286-.992 2.25-2.262 2.25a2.241 2.241 0 0 1-2.262-2.25 2.24 2.24 0 0 1 2.262-2.25A2.241 2.241 0 0 1 76 22.05zm-4.008 0c0 1.004.714 1.768 1.706 1.768.953 0 1.667-.804 1.667-1.768 0-1.004-.714-1.808-1.706-1.808-.913.04-1.667.844-1.667 1.808zm1.389 1.165h-.516v-2.25c.198-.04.476-.08.833-.08.437 0 .596.08.754.16.12.08.199.282.199.483 0 .24-.199.442-.476.522v.04c.198.08.317.241.396.563.08.321.12.482.16.562h-.556c-.08-.08-.12-.281-.16-.562-.039-.241-.158-.362-.475-.362h-.238v.924h.079zm0-1.245h.238c.278 0 .516-.08.516-.322 0-.2-.159-.321-.476-.321-.12 0-.238 0-.278.04v.603z"/></g></svg>