<svg xmlns="http://www.w3.org/2000/svg" xmlns:xlink="http://www.w3.org/1999/xlink" width="265" height="48" viewBox="0 0 265 48">
  <defs>
    <clipPath id="clip-ClientCircle__Web_color">
      <rect width="265" height="48"/>
    </clipPath>
  </defs>
  <g id="ClientCircle__Web_color" data-name="ClientCircle®_Web_color" clip-path="url(#clip-ClientCircle__Web_color)">
    <g id="Group_2120" data-name="Group 2120" transform="translate(-10 -47)">
      <path id="Path_2996" data-name="Path 2996" d="M3.106-14.281A1.957,1.957,0,0,0,1.144-12.33a1.958,1.958,0,0,0,1.962,1.953A1.958,1.958,0,0,0,5.068-12.33,1.957,1.957,0,0,0,3.106-14.281Zm0,.558A1.388,1.388,0,0,1,4.494-12.33a1.389,1.389,0,0,1-1.387,1.4,1.389,1.389,0,0,1-1.387-1.4A1.388,1.388,0,0,1,3.106-13.724Zm-.8.442v1.9h.5v-.7h.272l.346.7h.554l-.439-.748a.581.581,0,0,0,.342-.551.575.575,0,0,0-.579-.6Zm.5.41h.447a.17.17,0,0,1,.156.189.171.171,0,0,1-.156.191H2.807Z" transform="translate(267.932 91.432)" fill="#0aa6fb"/>
      <g id="Group_2096" data-name="Group 2096" transform="translate(13 49)">
        <g id="Group_1723" data-name="Group 1723" transform="translate(0 0)">
          <g id="Group_881" data-name="Group 881" transform="translate(50.207 4.826)">
            <path id="Path_1879" data-name="Path 1879" d="M-574.38-214.628a3.343,3.343,0,0,1-3.408,3.274,3.343,3.343,0,0,1-3.408-3.274,3.343,3.343,0,0,1,3.408-3.274A3.343,3.343,0,0,1-574.38-214.628Zm-6.357,22.107v-16.644a.479.479,0,0,1,.479-.479h4.939a.479.479,0,0,1,.479.479v16.644a.479.479,0,0,1-.479.479h-4.939A.479.479,0,0,1-580.737-192.521Z" transform="translate(619.856 218.637)" fill="#095283"/>
            <path id="Path_1880" data-name="Path 1880" d="M-546.388-184.219a.344.344,0,0,0-.326.444,3.791,3.791,0,0,0,3.853,2.839,12.435,12.435,0,0,0,4.717-1.168.48.48,0,0,1,.644.27l1.039,2.791a.476.476,0,0,1-.164.554,11.793,11.793,0,0,1-6.9,2.146,9.007,9.007,0,0,1-9.3-9.294,8.916,8.916,0,0,1,9.154-9.294c5.386,0,8.792,3.7,8.752,9.866q0,.185-.006.372a.48.48,0,0,1-.48.464Zm.287-3.232h4.9a.479.479,0,0,0,.469-.579,2.6,2.6,0,0,0-2.807-2.335,3.058,3.058,0,0,0-3.015,2.288A.477.477,0,0,0-546.1-187.451Z" transform="translate(601.075 203.431)" fill="#095283"/>
            <path id="Path_1881" data-name="Path 1881" d="M-135.054-184.219a.344.344,0,0,0-.326.444,3.791,3.791,0,0,0,3.853,2.839,12.434,12.434,0,0,0,4.717-1.168.48.48,0,0,1,.644.27l1.039,2.791a.477.477,0,0,1-.164.554,11.793,11.793,0,0,1-6.9,2.146,9.007,9.007,0,0,1-9.3-9.294,8.916,8.916,0,0,1,9.155-9.294c5.386,0,8.791,3.7,8.752,9.866q0,.185-.007.372a.479.479,0,0,1-.479.464Zm.287-3.232h4.9a.479.479,0,0,0,.469-.579,2.6,2.6,0,0,0-2.807-2.335,3.058,3.058,0,0,0-3.015,2.288A.477.477,0,0,0-134.767-187.451Z" transform="translate(328.784 203.431)" fill="#0aa6fb"/>
            <path id="Path_1882" data-name="Path 1882" d="M-477.92-194.932c3.245,0,6.032,2.059,6.032,6.619v11a.479.479,0,0,1-.479.479h-4.939a.479.479,0,0,1-.479-.479v-10.038a2.359,2.359,0,0,0-2.5-2.683,6.681,6.681,0,0,0-3.634,1.327.682.682,0,0,0-.282.558v10.836a.479.479,0,0,1-.479.479h-4.939a.479.479,0,0,1-.479-.479V-193.96a.479.479,0,0,1,.479-.479h4.939a.479.479,0,0,1,.479.479v.627a.478.478,0,0,0,.765.384,9.189,9.189,0,0,1,5.517-1.983Z" transform="translate(559.553 203.431)" fill="#095283"/>
            <path id="Path_1883" data-name="Path 1883" d="M-413.8-186.055a.481.481,0,0,1-.281.575,13.2,13.2,0,0,1-4.877,1.026c-3.282,0-6.1-1.593-6.1-5.932v-7.2a.479.479,0,0,0-.479-.479H-427.9a.479.479,0,0,1-.479-.479v-2.817a.479.479,0,0,1,.364-.465l2.909-.717h.051V-206.7a.479.479,0,0,1,.479-.479h4.939a.479.479,0,0,1,.479.479v3.673a.479.479,0,0,0,.479.479h3.537a.479.479,0,0,1,.479.479v3.52a.479.479,0,0,1-.479.479h-3.537a.479.479,0,0,0-.479.479v6.213c0,1.624.808,2.214,2.09,2.216a7.509,7.509,0,0,0,1.829-.276.48.48,0,0,1,.584.333Z" transform="translate(518.697 211.539)" fill="#095283"/>
            <path id="Path_1884" data-name="Path 1884" d="M-293.963-214.628a3.343,3.343,0,0,1-3.408,3.274,3.343,3.343,0,0,1-3.408-3.274,3.343,3.343,0,0,1,3.408-3.274A3.343,3.343,0,0,1-293.963-214.628Zm-6.357,22.189v-16.808a.4.4,0,0,1,.4-.4h5.1a.4.4,0,0,1,.4.4v16.808a.4.4,0,0,1-.4.4h-5.1A.4.4,0,0,1-300.32-192.44Z" transform="translate(434.229 218.637)" fill="#0aa6fb"/>
            <path id="Path_1885" data-name="Path 1885" d="M-255.418-194.535l-.8,4.564a.393.393,0,0,1-.392.328c-.075,0-.151,0-.229,0a9.454,9.454,0,0,0-5.288,1.783,1.254,1.254,0,0,0-.536,1.026v9.552a.4.4,0,0,1-.4.4h-5.1a.4.4,0,0,1-.4-.4v-16.808a.4.4,0,0,1,.4-.4h5.1a.4.4,0,0,1,.4.4v1.147a.4.4,0,0,0,.65.3A10.131,10.131,0,0,1-255.809-195h0A.4.4,0,0,1-255.418-194.535Z" transform="translate(412.905 203.477)" fill="#0aa6fb"/>
            <path id="Path_1886" data-name="Path 1886" d="M-675.973-212.211a.479.479,0,0,1-.728.068,7.755,7.755,0,0,0-5.5-2.3,7.869,7.869,0,0,0-7.806,7.913,7.869,7.869,0,0,0,7.806,7.913,7.668,7.668,0,0,0,4.8-1.673.479.479,0,0,1,.652.049l3.145,3.429a.48.48,0,0,1-.043.691,13.136,13.136,0,0,1-8.556,3.135,13.468,13.468,0,0,1-13.361-13.544,13.468,13.468,0,0,1,13.361-13.544,13.254,13.254,0,0,1,8.848,3.4.481.481,0,0,1,.082.626Z" transform="translate(695.566 220.075)" fill="#095283"/>
            <path id="Path_1887" data-name="Path 1887" d="M-353.541-216.108a.4.4,0,0,0-.055-.519,13.255,13.255,0,0,0-8.9-3.448,13.468,13.468,0,0,0-13.361,13.544A13.468,13.468,0,0,0-362.5-192.988a13.14,13.14,0,0,0,8.621-3.19.4.4,0,0,0,.036-.572L-357.1-200.3a.4.4,0,0,0-.541-.041,7.671,7.671,0,0,1-4.861,1.721,7.869,7.869,0,0,1-7.806-7.913,7.869,7.869,0,0,1,7.806-7.913,7.756,7.756,0,0,1,5.562,2.361.4.4,0,0,0,.612-.046Z" transform="translate(483.93 220.075)" fill="#0aa6fb"/>
            <path id="Path_1888" data-name="Path 1888" d="M-212.5-180.318a.328.328,0,0,1-.033.452l-.308.278a8.57,8.57,0,0,1-6.077,2.244,9.5,9.5,0,0,1-9.429-9.549,9.5,9.5,0,0,1,9.429-9.549,8.972,8.972,0,0,1,6.356,2.5l.144.137a.366.366,0,0,1,.043.482l-2.568,3.5a.348.348,0,0,1-.543.024l-.117-.134a4.276,4.276,0,0,0-3.315-1.5,4.511,4.511,0,0,0-4.471,4.541,4.5,4.5,0,0,0,5.428,4.44,4.368,4.368,0,0,0,1.79-.875l.391-.31a.429.429,0,0,1,.6.064Z" transform="translate(386.284 204.431)" fill="#0aa6fb"/>
            <path id="Path_1889" data-name="Path 1889" d="M-168.323-194.955c0,1.834.783,2.587,2.006,2.58a3.543,3.543,0,0,0,.8-.106.8.8,0,0,1,.936.5l.806,2.2a.8.8,0,0,1-.433,1.007,10.913,10.913,0,0,1-4.261.964c-3.106,0-5.67-1.762-5.67-6.192v-17.8a.8.8,0,0,1,.8-.8h4.224a.8.8,0,0,1,.8.8Z" transform="translate(350.396 215.12)" fill="#0aa6fb"/>
            <path id="Path_1890" data-name="Path 1890" d="M-615.344-194.955c0,1.834.782,2.587,2.005,2.58a3.741,3.741,0,0,0,.945-.143.6.6,0,0,1,.73.367l.932,2.551a.591.591,0,0,1-.3.743,11.035,11.035,0,0,1-4.455,1.05c-3.107,0-5.67-1.762-5.67-6.192v-18a.6.6,0,0,1,.6-.6h4.623a.6.6,0,0,1,.6.6Z" transform="translate(646.312 215.12)" fill="#095283"/>
          </g>
          <g id="Group_883" data-name="Group 883">
            <path id="Path_992" data-name="Path 992" d="M-815.991-165.393-833.6-156.1a.537.537,0,0,0-.226.726.541.541,0,0,0,.173.194l4.374,3a.54.54,0,0,1,.23.513l-.791,6.178a.544.544,0,0,0,.476.605.544.544,0,0,0,.324-.062l5.474-2.952a.548.548,0,0,1,.57.031l4.425,3.035a.544.544,0,0,0,.757-.138.546.546,0,0,0,.092-.236l2.528-19.639a.545.545,0,0,0-.476-.605A.547.547,0,0,0-815.991-165.393Zm-5.983,12.988-3.346-2.295a.537.537,0,0,1-.143-.746.542.542,0,0,1,.2-.174l3.907-2.061a.545.545,0,0,1,.737.222.544.544,0,0,1,.061.325l-.561,4.356a.544.544,0,0,1-.612.466A.545.545,0,0,1-821.975-152.405Z" transform="translate(837.34 188.636)" fill="#095283"/>
            <g id="Group_882" data-name="Group 882">
              <path id="Path_1893" data-name="Path 1893" d="M-807.6-228.924a22.316,22.316,0,0,0-32.491,4.421,22.272,22.272,0,0,0-2.817,19.922.34.34,0,0,0,.48.19l4.043-2.113a.335.335,0,0,0,.165-.394,17.094,17.094,0,0,1,2.367-14.647,17.143,17.143,0,0,1,24.9-3.446,17.177,17.177,0,0,1,3.7,22.263,17.075,17.075,0,0,1-12.956,8.012.335.335,0,0,0-.3.29l-.587,4.551a.34.34,0,0,0,.351.384A22.26,22.26,0,0,0-802.682-200.3,22.338,22.338,0,0,0-807.6-228.924Z" transform="translate(844.094 234.031)" fill="#0aa6fb"/>
              <path id="Path_1894" data-name="Path 1894" d="M-793.9-187.236a13.829,13.829,0,0,0-4.272-19.782,13.854,13.854,0,0,0-17.581,2.928,13.777,13.777,0,0,0-2.917,12.083.339.339,0,0,0,.487.219l4.18-2.185a.335.335,0,0,0,.177-.333,8.611,8.611,0,0,1,2.065-6.5,8.666,8.666,0,0,1,10.637-1.947,8.655,8.655,0,0,1,2.986,12.558,8.591,8.591,0,0,1-4.413,3.266.337.337,0,0,0-.232.276l-.613,4.754a.339.339,0,0,0,.386.38A13.768,13.768,0,0,0-793.9-187.236Z" transform="translate(827.507 217.426)" fill="#0aa6fb"/>
            </g>
          </g>
        </g>
      </g>
    </g>
  </g>
</svg>
