<svg width="701" height="139" viewBox="0 0 701 139" fill="none" xmlns="http://www.w3.org/2000/svg">
<g clip-path="url(#clip0_10201_16)">
<path d="M32.0368 85.1117C32.0368 89.8917 33.2268 94.3117 35.6168 98.3817C38.0068 102.452 41.2268 105.682 45.3068 108.072C49.3768 110.462 53.7968 111.652 58.5768 111.652C63.3568 111.652 67.7768 110.462 71.8468 108.072C75.9168 105.682 79.1468 102.452 81.5368 98.3817C83.9268 94.3117 85.1168 89.8917 85.1168 85.1117V32.0317H51.5968V5.4917H111.667V85.1117C111.667 94.8417 109.277 103.732 104.497 111.782C99.7168 119.832 93.3068 126.242 85.2568 131.022C77.2068 135.802 68.3168 138.192 58.5868 138.192C48.8568 138.192 39.9668 135.802 31.9168 131.022C23.8668 126.242 17.4568 119.832 12.6768 111.782C7.89684 103.732 5.50684 94.8417 5.50684 85.1117H32.0468H32.0368Z" fill="black"/>
<path d="M137.967 5.4917H244.127V32.0317H164.507V58.5717H228.327V85.1117H164.507V111.652H244.127V138.192H137.967V5.4917Z" fill="black"/>
<path d="M288.307 5.4917L316.177 97.3217L345.377 5.4917H377.487L406.947 97.3217L434.817 5.4917H462.687L422.347 138.192H392.087L361.567 42.6417L331.047 138.192H300.787L260.437 5.4917H288.307Z" fill="black"/>
<path d="M480.986 5.4917H507.526V111.652H571.376V138.192H480.986V5.4917Z" fill="black"/>
<path d="M677.427 91.9017C684.497 87.7417 690.117 82.1317 694.277 75.0517C698.437 67.9817 700.517 60.1917 700.517 51.6917C700.517 43.1917 698.437 35.4117 694.277 28.3317C690.117 21.2617 684.497 15.6417 677.427 11.4817C670.347 7.3217 662.567 5.2417 654.067 5.2417H591.697V137.942H618.237V98.1317H648.177L671.317 137.942H700.507L674.627 93.4017C675.567 92.9317 676.507 92.4317 677.417 91.8917L677.427 91.9017ZM618.237 31.7817H654.067C657.607 31.7817 660.927 32.6717 664.017 34.4317C667.107 36.2017 669.547 38.6417 671.317 41.7317C673.087 44.8317 673.967 48.1517 673.967 51.6817C673.967 55.2117 673.077 58.5417 671.317 61.6317C669.547 64.7317 667.117 67.1617 664.017 68.9317C660.917 70.7017 657.597 71.5817 654.067 71.5817H618.237V31.7817Z" fill="black"/>
<path d="M37.5332 18.7666L18.7666 0L0 18.7666L18.7666 37.5332L37.5332 18.7666Z" fill="black"/>
</g>
<defs>
<clipPath id="clip0_10201_16">
<rect width="701" height="139" fill="white"/>
</clipPath>
</defs>
</svg>
