<svg width="973.2" height="250" viewBox="0 0 973.2 250" xml:space="preserve" xmlns="http://www.w3.org/2000/svg">
<path d="M464.8 76.4c0-16.8-13.7-22.6-25.9-27.7-9-3.8-16.7-7-16.7-14 0-5.9 5.2-9.6 13.3-9.6 7.1 0 12.2 3 15.5 4.9 1.3.7 3.2 1.5 5.1.9 1.3-.4 2.3-1.4 3.1-3l2.3-4.2c1.8-3.2 1.1-6-1.9-8.1-3.6-2.6-12.7-7.1-23.9-7.1-18.5 0-31.4 11.1-31.4 27.1 0 16.3 13.6 22.3 25.6 27.5 9.1 4 17 7.4 17 14.6 0 5.9-5.1 9.8-13 9.8-8.7 0-15-4.4-18.1-6.5l-.2-.1c-3.6-2-6.1-1.6-8.3 1.3l-2.8 4.1c-3 4.1-1 6.7.9 8.3 5.6 4.3 16.4 9.4 28.4 9.4 18.3 0 31-11.3 31-27.6zm30 20.1V41.8c0-3.9-2.1-6-5.9-6h-5.7c-3.8 0-5.9 2.1-5.9 6v54.7c0 3.9 2 6 5.9 6h5.7c3.8 0 5.9-2.1 5.9-6zM483 28.4h5.1c3.5 0 5.5-1.9 5.5-5.4v-3.5c0-3.5-2-5.5-5.5-5.5H483c-3.5 0-5.4 1.9-5.4 5.5V23c.1 3.5 2 5.4 5.4 5.4zm143 137h5.1c3.5 0 5.5-1.9 5.5-5.4v-3.5c0-3.5-2-5.5-5.5-5.5H626c-3.5 0-5.4 1.9-5.4 5.5v3.5c0 3.5 1.9 5.4 5.4 5.4zM583.7 34.2c-10.4 0-16.2 6.5-19.9 12.8-3-8.4-9.7-12.8-19.4-12.8-9.2 0-14.5 6-18.4 12.2v-4.6c0-3.9-2.1-6-5.9-6h-5c-3.8 0-5.9 2.1-5.9 6v54.7c0 3.9 2 6 5.9 6h5.7c3.9 0 5.9-2.1 5.9-6v-24c0-15.2 6-22.1 13.9-22.1 6.8 0 8.1 4.8 8.1 12.5v33.7c0 3.9 2.1 6 6 6h5.7c3.9 0 5.9-2.1 5.9-6v-24c0-15.2 5.9-22.1 13.6-22.1 7 0 8.4 5 8.4 12.5v33.7c0 3.9 2.1 6 6 6h5.5c3.9 0 6-2.1 6-6v-37c0-16.9-7.4-25.5-22.1-25.5zm73 69.8c18.1 0 30.8-14.4 30.8-34.9 0-20.9-12-34.9-29.9-34.9-11.9 0-18.3 7-20.6 10.2v-3.6c0-3.1-2.3-5.1-5.9-5.1H627c-3.8 0-6 2.2-6 6v80.4c0 3.9 2.1 6 6 6h5.5c3.9 0 6-2.1 6-6v-23c0-1.4-.1-2.7-.1-3.6 2.2 2.9 8 8.5 18.3 8.5zM638 69.5c0-9.2 4.2-20.1 16-20.1 9.3 0 15.6 8 15.6 19.9 0 11.8-6.4 19.7-15.8 19.7-10.4 0-15.8-9.8-15.8-19.5zM725.6 97v-4.4c0-3-1.7-4.9-4.6-5.3-2.3-.2-4.6-1.3-4.6-7.2v-64c0-3.8-2.2-6-5.9-6h-5.7c-3.8 0-5.9 2.1-5.9 6v65.4c0 8.5 2.3 14.6 6.9 18.1 4.3 3.3 9.9 3.6 13.6 3.6 4.1 0 6.2-2.2 6.2-6.2zm63.9-61.3H783c-3.5 0-5.7 1.6-6.6 4.9l-11.6 33.6c-.6 2.1-1.3 4.8-1.7 6.6-.5-1.9-1.3-4.8-2-6.9l-12.4-33.4c-1.1-3.3-3.3-4.8-6.6-4.8h-7c-2.8 0-4.2 1.1-4.8 2-.6.9-1.1 2.6.1 5.1l24.9 57.9-2.3 5.5c-1.7 4-5.2 8.3-9.8 8.3-1.8 0-3.2-.6-4.4-1.1h-.1c-2.9-.7-5.1.5-6.5 3.3l-1.1 2.8c-.8 1.7-1 3.5-.4 4.9.5 1.3 1.6 2.3 3.2 2.9 2.2.8 5.5 2 9.4 2 11 0 20.1-6.6 24.3-17.6l27-69.1c.7-2 .6-3.8-.3-5.1-1.1-1.1-2.7-1.8-4.8-1.8zM457 191.2c6.6-4 10.4-11.2 10.4-19.5 0-14.7-11.4-24.1-29-24.1h-27.3c-3.8 0-5.9 2.1-5.9 6V234c0 3.9 2 6 5.9 6h27.7c9.1 0 16.9-2.3 22.5-6.5 6.3-4.8 9.6-11.9 9.6-20.6.2-10.3-5.3-18.7-13.9-21.7zm-33.9-6.5V163h15.2c6.9 0 11 4 11 10.7 0 6.7-4.1 11.1-10.6 11.1h-15.6zm29.7 27.1c0 7.8-4.8 12.6-12.6 12.6h-17.1v-25.1h17.1c7.7.1 12.6 5 12.6 12.5zm85.4-38.6h-5.5c-3.9 0-6 2.1-6 6v24.7c0 14.7-9.2 21.5-17.8 21.5-6.8 0-9.5-3.7-9.5-12.7v-33.4c0-3.9-2.1-6-6-6h-5.5c-3.8 0-6 2.2-6 6V216c0 17 7.9 25.5 23.4 25.5 10.3 0 18.3-5.8 22.2-11.9v4.4c0 3.9 2 6 5.9 6h5c3.9 0 6-2.1 6-6v-54.7c-.2-3.9-2.4-6.1-6.2-6.1zm47 26.6c-6.2-2.1-11.5-4-11.5-8 0-5 5.2-5.8 8.3-5.8 5.3 0 9.5 1.9 12.2 3.2 3.7 1.6 6.4.8 8-2.3l1.3-2.3c1.7-3.5.9-6.4-2.2-8-2.2-1.2-8.7-4.8-18.6-4.8-15.4 0-25.7 8.2-25.7 20.3 0 13.8 11.7 17.9 21.2 21.2 6.1 2.2 11.4 4 11.4 7.9 0 3.7-3.3 6.1-8.5 6.1-6.2 0-10.9-2.5-13.9-4.2l-.4-.2c-3.6-1.9-6.1-1.4-8.2 1.5l-1.5 2.3c-1.2 1.7-1.6 3.4-1.2 4.9.3 1.4 1.3 2.5 2.7 3.3 6.7 4.5 14.1 6.8 22.2 6.8 15.1 0 25.6-8.6 25.6-20.8-.2-13.8-11.9-17.9-21.2-21.1zm46.6-26.6h-5.7c-3.8 0-5.9 2.1-5.9 6v54.7c0 3.9 2 6 5.9 6h5.7c3.9 0 5.9-2.1 5.9-6v-54.7c0-3.8-2.1-6-5.9-6zm63-1.6c-13 0-19.8 7.8-22.7 12.2v-4.6c0-3.9-2.1-6-5.9-6h-5c-3.8 0-5.9 2.1-5.9 6v54.7c0 3.9 2 6 5.9 6h5.7c3.9 0 5.9-2.1 5.9-6v-25.3c0-12.1 7.7-20.8 18.3-20.8 6.9 0 9.7 3.7 9.7 12.7v33.4c0 3.9 2.1 6 6 6h5.5c3.9 0 6-2.1 6-6v-36.7c0-17-7.9-25.6-23.5-25.6zm70.6 0c-20 0-34 14.4-34 34.9 0 20.2 15.1 34.9 35.9 34.9 10 0 17.8-3.6 22.6-6.6 3-1.8 3.8-4.7 2-8.1l-1.5-2.6c-1.8-3.1-4.4-3.8-8-2.1h-.1c-3 1.9-7.9 4.1-13.8 4.1-10.4 0-17.8-6.5-19-16.7h39.3c3.4 0 6.3-2.8 6.3-6.2.1-19.1-11.6-31.6-29.7-31.6zm-.3 13.6c7.2 0 12.1 5.2 12.6 13.3H750c1.7-8.2 7.4-13.3 15.1-13.3zm68.6 14.6c-6.2-2.1-11.5-4-11.5-8 0-5 5.2-5.8 8.3-5.8 5.3 0 9.5 1.9 12.2 3.2 3.7 1.6 6.4.8 8-2.3l1.3-2.3c1.7-3.5.9-6.4-2.2-8-2.2-1.2-8.7-4.8-18.6-4.8-15.4 0-25.7 8.2-25.7 20.3 0 13.8 11.7 17.9 21.2 21.2 6.1 2.2 11.4 4 11.4 7.9 0 3.7-3.3 6.1-8.5 6.1-6.2 0-10.9-2.5-13.9-4.2l-.4-.2c-3.6-1.9-6.1-1.4-8.2 1.5l-1.5 2.3c-1.2 1.7-1.6 3.4-1.2 4.9.3 1.4 1.3 2.5 2.7 3.3 6.7 4.5 14.1 6.8 22.2 6.8 15.1 0 25.6-8.6 25.6-20.8-.1-13.8-11.8-17.9-21.2-21.1zm59.4 0c-6.2-2.1-11.5-4-11.5-8 0-5 5.2-5.8 8.3-5.8 5.3 0 9.5 1.9 12.2 3.2 3.7 1.6 6.4.8 8-2.3l1.3-2.3c1.7-3.5.9-6.4-2.2-8-2.2-1.2-8.7-4.8-18.6-4.8-15.4 0-25.7 8.2-25.7 20.3 0 13.8 11.7 17.9 21.2 21.2 6.1 2.2 11.4 4 11.4 7.9 0 3.7-3.3 6.1-8.5 6.1-6.2 0-10.9-2.5-13.9-4.2l-.4-.2c-3.6-1.9-6.1-1.4-8.2 1.5l-1.5 2.3c-1.2 1.7-1.6 3.4-1.2 4.9.3 1.4 1.3 2.5 2.7 3.3 6.7 4.5 14.1 6.8 22.2 6.8 15.1 0 25.6-8.6 25.6-20.8-.1-13.8-11.8-17.9-21.2-21.1z" fill="#000000"/>
<linearGradient id="a" x1="304.72" x2="43.413" y1="263.68" y2="2.371" gradientUnits="userSpaceOnUse">
<stop stop-color="#4632d8" offset="0"/>
<stop stop-color="#9084e8" offset="1"/>
</linearGradient>
<path d="M153.7 150.6c4.1 8.2 6.2 17.5 6.2 28 0 9.8-1.8 19.1-5.4 27.7s-8.7 16.2-15.4 22.7-15.1 11.7-25.3 15.4c-10.2 3.8-21.4 5.6-33.7 5.6-15.3 0-29.4-2.6-42.5-7.7C24.5 237.1 14 231.5 6 225.4c-2.1-1.7-3.7-3.4-4.7-5.2-.8-1.3-1.2-2.9-1.2-4.8-.1-.6-.1-1.1 0-1.7.2-2.5 1.4-5.3 3.7-8.1l7.7-10.8c2.7-3.7 5.6-5.7 8.7-6.2.4-.1.9-.2 1.5-.2 2.7 0 5.9 1.1 9.4 3.2 16.8 12 33.2 18.1 49 18.1 11.1 0 20-2.6 26.5-7.7s9.8-11.8 9.8-20c0-4.9-1.3-9.4-3.8-13.4-2.6-4.1-6-7.6-10.4-10.6s-9.4-5.9-15.1-8.7-11.6-5.5-17.9-8.2c-6.2-2.7-12.4-5.5-18.6-8.5s-12.1-6.5-17.7-10.4-10.6-8.3-15-13C13.4 104.5 10 98.8 7.4 92c-2.5-6.7-3.8-14.1-3.8-22.1 0-13.8 3.6-26.1 10.8-36.8s17-18.9 29.3-24.6C56.1 2.8 69.9 0 85.3 0c12.9 0 24.9 1.9 36.2 5.7 11.2 3.8 20 8.1 26.3 12.7 4.6 3.2 6.8 7 6.8 11.3 0 2.6-.8 5.3-2.5 8.1L145.9 49c-2.6 5-6.1 7.5-10.5 7.5-2.7 0-5.6-.9-8.9-2.7-4.4-2.6-8.2-4.7-11.4-6.4-3.2-1.6-7.7-3.3-13.5-4.8-5.7-1.6-11.5-2.4-17.3-2.4-11.3 0-20.3 2.5-26.9 7.5-6.7 5-10 11.6-10 19.9 0 6.1 2.1 11.5 6.3 16.3 4.2 4.7 9.6 8.8 16.2 12.1s13.9 6.6 22 9.9c8 3.3 16 7 24 11 8 4.1 15.3 8.7 21.9 13.8 6.4 5.1 11.7 11.7 15.9 19.9zm211.2 19.9c0 21.6-7.8 41.1-22 55-15.3 14.9-37.2 22.7-63.3 22.7h-72.1c-16.5 0-28.9-12.4-28.9-28.9V30.6c0-8.1 2.9-15.4 8.2-20.7s12.6-8.2 20.7-8.2h60.9c23.1 0 42.7 7.4 56.6 21.5 12.9 13 19.9 30.8 19.9 50.2 0 15.5-4.2 28.4-12.9 39.3 9.3 5.2 16.8 12 22.2 20.2 7.2 10.7 10.7 23.3 10.7 37.6zm-81.8-51.9c.3-.2 33.2-20.4 33.2-45.1 0-11.9-4.1-22.6-11.6-30.1-10.6-10.7-25.6-13-36.3-13h-61.1v189.2h72.3c18.5 0 33.5-5.1 43.3-14.6 8.6-8.4 13.4-20.6 13.4-34.5 0-8.6-2-15.9-5.8-21.6v-.2c-9.2-15.9-46.2-25.5-46.6-25.6l-5.7-1.5 4.9-3z" fill="url(#a)"/>
</svg>
