<svg xmlns="http://www.w3.org/2000/svg" width="334.999" height="56.086" viewBox="0 0 334.999 56.086"><path d="M88.366 37.842c1.096.07 2.441.176 3.397.354.141.423.175 1.523.104 1.946h-10.188c.034-.531.282-1.38.459-1.876.708-.176 2.124-.388 2.972-.46v-20.063h-5.732c-.07.815-.318 2.372-.459 3.01-.531.141-1.486.212-2.123.212v-5.38h19.886v5.521c-.707 0-1.592-.107-2.158-.248-.176-.779-.389-2.23-.46-3.115h-5.697v20.099zM104 37.984c.849.07 1.947.247 2.582.459.107.425.144 1.204.073 1.699h-8.493c.071-.531.249-1.132.495-1.591.567-.249 1.557-.533 2.266-.673v-21.231h-2.548c.036-.602.282-1.345.637-1.875.85-.319 2.052-.494 3.184-.494.638 0 1.274.069 1.805.21v6.83c0 1.449-.071 2.972-.177 4.422h.354c.565-1.379 2.404-3.006 5.555-3.006 2.831 0 5.344.884 5.344 6.368 0 2.972-.071 5.91-.213 8.882.955.07 2.159.247 2.866.459.07.283.106.709.106 1.097 0 .213 0 .391-.036.603h-8.386c.07-.531.249-1.132.495-1.591.531-.249 1.416-.533 2.017-.673v-8.281c0-2.724-.885-4.459-3.397-4.459-1.84 0-3.786 1.275-4.529 2.266v10.579zM123.103 32.145c.071 3.786 2.442 6.121 5.768 6.121 1.522 0 3.644-.495 4.954-.991.07.531-.141 1.487-.46 2.019-1.273.708-3.396 1.452-5.59 1.452-5.061 0-7.962-3.787-7.962-8.672 0-5.201 3.22-9.34 8.173-9.34 4.247 0 6.051 3.079 6.051 7.537 0 .6-.036 1.238-.105 1.874h-10.829zm7.783-2.052c.25-2.441-.459-5.414-3.431-5.414-2.512 0-4.139 2.194-4.352 5.414h7.783zM143.937 40.142c.035-.531.247-1.38.424-1.876.637-.176 1.981-.388 2.759-.46v-19.956c-.813-.036-2.015-.141-2.618-.248-.106-.459-.141-1.556-.069-2.018h8.917c.105.426.07 1.522-.072 1.983-.813.141-1.98.246-2.902.282v19.992c1.028.07 2.265.176 3.149.354.106.39.142.885.142 1.38 0 .213 0 .318-.036.566h-9.694zM161.732 37.984c.885.07 1.947.247 2.583.459.107.425.141 1.204.07 1.699h-8.492c.071-.531.249-1.132.496-1.591.565-.249 1.557-.533 2.265-.673v-12.562h-2.584c.036-.602.285-1.345.637-1.875.743-.283 1.877-.494 2.937-.494.603 0 1.167.07 1.664.211v2.583h.353c.635-1.203 2.511-3.006 5.698-3.006 2.795 0 5.271.884 5.271 6.368 0 2.972-.07 5.875-.212 8.882.956.07 2.158.247 2.865.459.071.283.106.709.106 1.097 0 .213 0 .391-.035.603h-8.386c.07-.531.248-1.132.495-1.591.533-.249 1.416-.533 2.018-.673v-8.281c0-2.724-.849-4.459-3.326-4.459-1.805 0-3.681 1.275-4.423 2.266v10.578zM187.769 23.335c.106.636.177 1.522.177 2.051h-4.813v12.492c.992.07 2.69.388 3.504.636.105.426.142 1.133.07 1.628h-9.411c.07-.531.247-1.132.496-1.591.564-.249 1.557-.533 2.263-.673v-12.492h-2.794c0-.494.213-1.343.424-1.838.672-.25 1.627-.497 2.37-.638v-1.911c0-4.776 2.901-6.688 6.229-6.688 1.132 0 2.477.178 3.855.603.071.389.106.779.106 1.203 0 1.133-.211 2.335-.495 3.113-.566 0-1.63-.248-2.088-.565v-2.371c-.319-.177-.814-.248-1.132-.248-1.875 0-3.398.955-3.398 4.6v2.689h4.637zM205.812 31.474c0 5.907-3.15 9.271-8.033 9.271-5.166 0-8.067-3.187-8.067-9.271 0-5.415 3.468-8.74 8.067-8.74 4.811 0 8.033 3.113 8.033 8.74zm-8.033 7.145c3.256 0 4.811-2.759 4.811-7.145 0-3.788-1.874-6.653-4.811-6.653-3.15 0-4.848 2.653-4.848 6.653.001 4.317 1.84 7.145 4.848 7.145zM214.264 26.519c.495-2.158 2.301-3.785 4.601-3.785.424 0 1.167.105 1.592.282.247.424.459 1.239.459 2.122 0 .356-.035.674-.104.957-.639-.39-1.558-.6-2.406-.6-1.629 0-3.185.883-4.07 2.9v9.484c.991.07 2.689.353 3.504.636.105.426.142 1.133.07 1.628h-9.411c.07-.531.247-1.132.492-1.591.567-.249 1.559-.533 2.267-.673v-12.563h-2.584c.037-.602.285-1.345.637-1.875.779-.283 1.913-.494 2.938-.494.603 0 1.167.07 1.663.211v3.361h.352zM228.873 37.984c.885.07 1.945.247 2.582.459.106.425.142 1.204.071 1.699h-8.493c.069-.531.249-1.132.496-1.591.565-.249 1.557-.533 2.265-.673v-12.562h-2.584c.035-.602.284-1.345.637-1.875.743-.283 1.878-.494 2.938-.494.602 0 1.165.07 1.663.211v2.583h.354c.635-1.203 2.476-3.006 5.592-3.006 2.158 0 4.033.601 4.705 3.22h.176c.603-1.311 2.513-3.22 5.697-3.22 2.761 0 5.201.884 5.201 6.368 0 3.007-.071 5.979-.213 8.882.956.07 2.159.247 2.868.459.07.283.106.709.106 1.097 0 .213 0 .391-.036.603h-8.386c.07-.531.246-1.132.493-1.591.532-.249 1.417-.533 2.019-.673v-8.281c0-2.724-.814-4.459-3.254-4.459-1.808 0-3.575 1.311-4.318 2.266v10.545c.884.069 1.947.282 2.584.494.106.425.14 1.204.069 1.699h-8.174c.071-.531.247-1.132.495-1.591.531-.249 1.416-.533 2.018-.673v-8.281c0-2.724-.814-4.459-3.255-4.459-1.771 0-3.574 1.275-4.316 2.266v10.578zM265.132 38.054c-.919 1.734-2.83 2.691-4.953 2.691-2.583 0-5.025-1.488-5.025-4.743 0-3.645 3.078-5.521 6.582-5.521 1.131 0 2.407.214 3.291.604v-1.912c0-2.618-1.132-3.962-3.36-3.962-1.522 0-3.93.884-5.168 1.732-.141-.317-.176-.742-.176-1.203 0-.671.176-1.417.388-1.769 1.17-.673 3.892-1.237 5.769-1.237 3.857 0 5.556 1.875 5.556 6.721v6.865c0 .709.177 1.559.459 1.84.532 0 1.771-.211 2.442-.424.035.143.035.282.035.389 0 .568-.14 1.169-.353 1.595-.778.493-2.619 1.026-3.823 1.026-.707-.425-1.379-1.559-1.485-2.691h-.179zm-.07-5.414c-.672-.177-1.77-.282-2.478-.282-2.758 0-4.315 1.237-4.315 3.113 0 1.947 1.521 2.831 3.219 2.831 1.379 0 2.867-.671 3.574-1.734v-3.928zM275.354 19.018c.531-.285 1.663-.567 2.372-.567v4.884h5.129c.072.354.18 1.486.106 2.051h-5.235v9.732c0 2.3.318 3.289 2.3 3.289.99 0 2.193-.177 3.29-.459.036.142.036.389.036.459 0 .497-.179 1.062-.354 1.381-1.417.601-2.938.957-4.354.957-2.722 0-4.103-1.488-4.103-5.133 0-2.088.036-6.652.179-10.227h-2.444c0-.494.214-1.378.427-1.838.564-.25 1.38-.497 2.051-.638l.6-3.891zM286.037 25.316c.036-.602.284-1.345.637-1.875.814-.283 2.019-.494 3.186-.494.636 0 1.311.07 1.841.211v14.791c.884.069 2.052.282 2.795.494.07.283.105.709.105 1.097 0 .213 0 .391-.035.603h-8.704c.07-.531.249-1.132.494-1.591.567-.249 1.557-.533 2.265-.673v-12.563h-2.584zm6.193-8.245c0 1.346-.814 2.088-1.982 2.088-1.31 0-2.017-.708-2.017-2.088 0-1.167.849-1.945 2.017-1.945s1.982.707 1.982 1.945zM312.467 31.474c0 5.907-3.15 9.271-8.033 9.271-5.167 0-8.067-3.187-8.067-9.271 0-5.415 3.468-8.74 8.067-8.74 4.811 0 8.033 3.113 8.033 8.74zm-8.033 7.145c3.255 0 4.812-2.759 4.812-7.145 0-3.788-1.874-6.653-4.812-6.653-3.15 0-4.848 2.653-4.848 6.653 0 4.317 1.839 7.145 4.848 7.145zM321.342 37.984c.885.07 1.946.247 2.582.459.106.425.141 1.204.071 1.699h-8.492c.07-.531.248-1.132.494-1.591.567-.249 1.557-.533 2.266-.673v-12.562h-2.583c.035-.602.284-1.345.638-1.875.741-.283 1.875-.494 2.937-.494.601 0 1.167.07 1.662.211v2.583h.354c.638-1.203 2.513-3.006 5.698-3.006 2.796 0 5.271.884 5.271 6.368 0 2.972-.071 5.875-.211 8.882.955.07 2.157.247 2.865.459.069.283.105.709.105 1.097 0 .213 0 .391-.036.603h-8.386c.072-.531.249-1.132.497-1.591.529-.249 1.414-.533 2.016-.673v-8.281c0-2.724-.849-4.459-3.325-4.459-1.806 0-3.681 1.275-4.423 2.266v10.578z"/><path fill="#ED403A" d="M56.082 28.046c0-15.491-12.556-28.046-28.042-28.046s-28.04 12.555-28.04 28.046c0 15.485 12.553 28.04 28.04 28.04s28.042-12.555 28.042-28.04z"/><path fill="#fff" d="M37.247 36.215l-6.408-1.515v-13.316l6.405-1.518c.671-.158 1.146-.756 1.146-1.445v-2.644h-20.698v2.644c0 .688.474 1.287 1.144 1.445l6.404 1.518v13.316l-6.402 1.515c-.671.159-1.146.758-1.146 1.448v2.643h20.699v-2.643c.001-.69-.474-1.288-1.144-1.448z"/></svg>