<svg width="906" height="237" viewBox="0 0 906 237" fill="none" xmlns="http://www.w3.org/2000/svg">
<path d="M56.77 28.32C56.77 12.68 69.45 0 85.09 0C100.73 0 113.41 12.68 113.41 28.32C113.41 43.96 100.73 56.64 85.09 56.64C69.45 56.64 56.77 43.96 56.77 28.32Z" fill="#158D71"/>
<path d="M0.140005 56.6299H56.77V84.9499C56.77 100.59 44.09 113.27 28.45 113.27C12.81 113.27 0.130005 100.59 0.130005 84.9499V56.6299H0.140005Z" fill="#158D71"/>
<path d="M56.77 84.9499C56.77 69.3099 69.45 56.6299 85.09 56.6299C100.73 56.6299 113.41 69.3099 113.41 84.9499V113.27H56.78V84.9499H56.77Z" fill="#011936"/>
<path d="M0.140015 28.32C0.140015 12.68 12.82 0 28.46 0C44.1 0 56.78 12.68 56.78 28.32C56.78 43.96 44.1 56.64 28.46 56.64C12.82 56.64 0.140015 43.96 0.140015 28.32Z" fill="#011936"/>
<path d="M194.16 71.4401C194.05 82.8801 185.21 87.3001 177.85 87.3001C170.49 87.3001 165.16 81.6401 165.16 72.6901V42.3401H155.31V72.9201C155.2 87.7601 163.35 96.5901 176.6 96.5901C182.49 96.5901 190.98 93.6501 194.16 86.9601V95.2301H204.01V42.3401H194.16V71.4501V71.4401Z" fill="black"/>
<path d="M236.09 96.58C247.08 96.58 256.59 90.35 256.59 80.5C256.59 74.5 253.76 67.93 242.77 65.21L234.95 63.28C231.55 62.49 228.15 60.56 228.15 56.94C228.15 52.86 231.55 49.58 236.64 49.58C240.83 49.58 245.02 52.3 245.13 56.38H254.64C254.64 45.73 245.35 40.98 236.4 40.98C225.75 40.98 218.28 47.89 218.28 56.61C218.28 65.33 223.38 69.41 232.21 71.79L239.46 73.49C243.65 74.4 246.71 76.43 246.71 80.4C246.71 84.7 242.75 87.99 236.06 87.99C229.37 87.99 225.64 84.25 225.53 79.72H216.36C216.81 90.59 226.55 96.6 236.07 96.6L236.09 96.58Z" fill="black"/>
<path d="M319.17 68.61C319.17 51.85 307.96 40.97 292.89 40.97C277.82 40.97 265.71 51.84 265.71 68.61C265.71 85.38 277.83 96.59 292.89 96.59C303.08 96.59 312.6 91.61 317.13 82.43L308.64 79.03C305.58 84.35 299.69 87.3 293.24 87.3C284.18 87.3 277.38 82.43 275.91 73.03H318.95C319.06 71.56 319.18 70.09 319.18 68.61H319.17ZM276.02 64.53C277.61 55.02 283.95 50.26 292.9 50.26C301.85 50.26 308.08 55.47 309.32 64.53H276.02Z" fill="black"/>
<path d="M356.84 40.97C349.82 40.97 344.72 45.05 342 54.33V42.32H332.03V95.21H342V75.84C342 61.91 346.19 50.47 356.72 50.47C358.76 50.47 361.59 50.92 364.42 52.28L366.01 42.99C364.42 41.97 360.57 40.95 356.84 40.95V40.97Z" fill="black"/>
<path d="M409.76 29.42C413.61 29.42 416.78 26.59 416.78 22.85C416.78 19.11 413.61 16.28 409.76 16.28C405.91 16.28 402.85 19.11 402.85 22.85C402.85 26.59 406.02 29.42 409.76 29.42ZM414.74 95.22V42.33H404.89V95.22H414.74Z" fill="black"/>
<path d="M458.72 40.97C452.94 40.97 444.34 43.91 441.16 50.37V42.33H431.31V95.22H441.16V66.56C441.16 55.12 449.99 50.7 457.36 50.7C464.73 50.7 470.16 56.36 470.16 65.2V95.21H480.01V64.63C480.12 49.79 471.86 40.96 458.72 40.96V40.97Z" fill="black"/>
<path d="M509.16 42.3299V22.3999H499.31V42.3299H489.8V50.8199H499.31V95.2199H509.16V50.8199H520.6V42.3299H509.16Z" fill="black"/>
<path d="M579.9 68.61C579.9 51.85 568.69 40.97 553.62 40.97C538.55 40.97 526.44 51.84 526.44 68.61C526.44 85.38 538.56 96.59 553.62 96.59C563.81 96.59 573.33 91.61 577.86 82.43L569.37 79.03C566.31 84.35 560.42 87.3 553.97 87.3C544.91 87.3 538.11 82.43 536.64 73.03H579.68C579.79 71.56 579.91 70.09 579.91 68.61H579.9ZM536.75 64.53C538.34 55.02 544.68 50.26 553.63 50.26C562.58 50.26 568.81 55.47 570.05 64.53H536.75Z" fill="black"/>
<path d="M617.56 40.97C610.54 40.97 605.44 45.05 602.72 54.33V42.32H592.75V95.21H602.72V75.84C602.72 61.91 606.91 50.47 617.44 50.47C619.48 50.47 622.31 50.92 625.14 52.28L626.73 42.99C625.14 41.97 621.29 40.95 617.56 40.95V40.97Z" fill="black"/>
<path d="M656.49 82.6501L640.18 42.3301H629.65L651.62 95.2201H661.25L683.34 42.3301H672.69L656.49 82.6501Z" fill="black"/>
<path d="M697.94 29.42C701.79 29.42 704.96 26.59 704.96 22.85C704.96 19.11 701.79 16.28 697.94 16.28C694.09 16.28 691.03 19.11 691.03 22.85C691.03 26.59 694.2 29.42 697.94 29.42ZM702.92 95.22V42.33H693.07V95.22H702.92Z" fill="black"/>
<path d="M769.44 68.61C769.44 51.85 758.23 40.97 743.16 40.97C728.09 40.97 715.98 51.84 715.98 68.61C715.98 85.38 728.1 96.59 743.16 96.59C753.35 96.59 762.87 91.61 767.4 82.43L758.91 79.03C755.85 84.35 749.96 87.3 743.51 87.3C734.45 87.3 727.65 82.43 726.18 73.03H769.22C769.33 71.56 769.45 70.09 769.45 68.61H769.44ZM726.28 64.53C727.87 55.02 734.21 50.26 743.16 50.26C752.11 50.26 758.34 55.47 759.58 64.53H726.28Z" fill="black"/>
<path d="M835.32 79.9301L821.73 42.3301H812.1L798.62 79.9301L785.14 42.3301H774.49L794.65 95.2201H802.8L816.84 55.9201L831.45 95.2201H839.72L859.43 42.3301H848.78L835.3 79.9301H835.32Z" fill="black"/>
<path d="M883.97 96.58C894.96 96.58 904.47 90.35 904.47 80.5C904.47 74.5 901.64 67.93 890.65 65.21L882.83 63.28C879.43 62.49 876.03 60.56 876.03 56.94C876.03 52.86 879.43 49.58 884.52 49.58C888.71 49.58 892.9 52.3 893.01 56.38H902.52C902.52 45.73 893.23 40.98 884.28 40.98C873.63 40.98 866.16 47.89 866.16 56.61C866.16 65.33 871.26 69.41 880.09 71.79L887.34 73.49C891.53 74.4 894.59 76.43 894.59 80.4C894.59 84.7 890.63 87.99 883.94 87.99C877.25 87.99 873.52 84.25 873.41 79.72H864.24C864.69 90.59 874.43 96.6 883.95 96.6L883.97 96.58Z" fill="black"/>
<path d="M405 155.524C405 154.785 405.36 154.416 406.081 154.416H411.65C412.352 154.416 412.703 154.785 412.703 155.524V168.298C414.126 166.931 415.733 165.869 417.525 165.112C419.317 164.354 421.21 163.976 423.205 163.976C426.401 163.976 429.255 164.751 431.768 166.303C434.28 167.855 436.229 169.961 437.615 172.621C439 175.281 439.693 178.218 439.693 181.433C439.693 184.776 438.963 187.778 437.504 190.439C436.044 193.08 434.049 195.149 431.518 196.646C429.006 198.123 426.207 198.862 423.122 198.862C421.22 198.862 419.372 198.465 417.58 197.671C415.788 196.876 414.163 195.75 412.703 194.29L412.121 196.784C412.011 197.246 411.844 197.606 411.623 197.865C411.419 198.123 411.096 198.253 410.653 198.253H406.081C405.36 198.253 405 197.883 405 197.144V155.524ZM412.177 181.405C412.177 183.326 412.648 185.1 413.59 186.725C414.551 188.333 415.835 189.607 417.442 190.549C419.049 191.492 420.785 191.963 422.651 191.963C424.572 191.963 426.272 191.501 427.75 190.577C429.246 189.635 430.401 188.36 431.214 186.753C432.045 185.127 432.461 183.345 432.461 181.405C432.461 179.484 432.036 177.72 431.186 176.113C430.355 174.487 429.2 173.194 427.722 172.233C426.244 171.273 424.572 170.792 422.707 170.792C420.804 170.792 419.04 171.273 417.414 172.233C415.807 173.175 414.532 174.459 413.59 176.085C412.648 177.692 412.177 179.465 412.177 181.405Z" fill="black"/>
<path d="M456.488 207.591C456.211 208.238 455.759 208.561 455.131 208.561H450.004C449.228 208.561 448.841 208.247 448.841 207.619C448.841 207.379 448.896 207.101 449.007 206.787L453.496 195.315L441.664 166.082C441.553 165.804 441.497 165.564 441.497 165.361C441.497 165.01 441.617 164.751 441.858 164.585C442.098 164.4 442.384 164.308 442.717 164.308H447.732C448.36 164.308 448.804 164.659 449.062 165.361L457.043 187.003L465.162 165.306C465.42 164.641 465.864 164.308 466.492 164.308H472.172C472.911 164.308 473.281 164.613 473.281 165.223C473.281 165.444 473.234 165.675 473.142 165.915L456.488 207.591Z" fill="black"/>
<path fill-rule="evenodd" clip-rule="evenodd" d="M679.418 203.023V151.594C679.418 142.993 672.425 136 663.824 136H523.624C515.024 136 508.03 142.993 508.03 151.594V203.023C508.03 211.624 515.024 218.617 523.624 218.617H625.078L652.574 236.976L647.043 218.617H663.839C672.439 218.617 679.433 211.624 679.433 203.023H679.418ZM537.611 187.69C538.422 189.109 539.493 190.195 540.854 190.933C542.201 191.672 543.706 192.048 545.357 192.048C547.008 192.048 548.513 191.657 549.889 190.861C551.264 190.079 552.35 188.95 553.147 187.516C553.943 186.068 554.349 184.418 554.349 182.564V159.485C554.349 159.152 554.45 158.877 554.653 158.674C554.855 158.471 555.13 158.37 555.463 158.37H561.096C561.458 158.37 561.733 158.471 561.936 158.689C562.037 158.79 562.124 158.92 562.167 159.065C562.225 159.21 562.24 159.355 562.24 159.499V182.55C562.24 186.242 561.487 189.341 559.966 191.831C558.461 194.321 556.434 196.16 553.885 197.347C551.337 198.535 548.499 199.128 545.343 199.128C542.186 199.128 539.363 198.52 536.815 197.304C534.266 196.088 532.225 194.235 530.719 191.73C529.213 189.239 528.446 186.141 528.446 182.463V159.47C528.446 159.181 528.532 158.906 528.721 158.703C528.808 158.602 528.909 158.515 529.039 158.457C529.155 158.399 529.3 158.37 529.43 158.37H535.338C535.714 158.37 535.975 158.457 536.134 158.645C536.293 158.833 536.38 159.108 536.38 159.456V182.564C536.38 184.548 536.786 186.257 537.596 187.69H537.611ZM567.553 191.672C567.553 191.845 567.582 192.019 567.655 192.178C567.742 192.381 567.857 192.584 567.973 192.772C569.247 194.741 570.941 196.291 573.055 197.42C575.169 198.549 577.587 199.114 580.28 199.114C582.38 199.114 584.465 198.723 586.42 197.927C588.374 197.13 589.967 195.943 591.198 194.365C592.428 192.772 593.036 190.861 593.036 188.631C593.036 186.242 592.283 184.099 590.792 182.202C589.286 180.306 586.999 178.901 583.929 177.975C583.538 177.844 583.176 177.728 582.829 177.642C582.496 177.54 582.177 177.468 581.902 177.381C580.396 176.961 579.281 176.614 578.557 176.338C577.834 176.063 577.24 175.701 576.82 175.253C576.386 174.818 576.168 174.225 576.168 173.486C576.168 172.53 576.559 171.749 577.37 171.141C578.181 170.532 579.281 170.243 580.7 170.243C582.047 170.243 583.191 170.489 584.103 170.967C585.015 171.445 585.898 172.169 586.724 173.124C587.028 173.486 587.303 173.66 587.563 173.66C587.766 173.66 588.012 173.544 588.287 173.327L591.487 170.677C591.849 170.402 592.023 170.127 592.023 169.866C592.023 169.635 591.878 169.345 591.603 168.969C590.401 167.448 588.895 166.16 587.057 165.103C585.232 164.046 583.046 163.525 580.498 163.525C578.138 163.525 576.053 164.002 574.243 164.944C572.433 165.899 571.043 167.115 570.073 168.621C569.103 170.127 568.61 171.662 568.61 173.211C568.61 175.151 568.987 176.802 569.725 178.163C570.464 179.524 571.593 180.682 573.099 181.638C574.605 182.593 576.588 183.448 579.05 184.201C580.121 184.519 580.744 184.693 580.932 184.736C582.148 185.098 583.046 185.388 583.625 185.619C584.204 185.851 584.668 186.199 585.001 186.633C585.334 187.082 585.507 187.69 585.507 188.486C585.507 189.254 585.218 189.949 584.639 190.557C584.059 191.165 583.307 191.643 582.409 191.961C581.526 192.28 580.599 192.454 579.672 192.454C578.166 192.454 576.907 192.092 575.893 191.382C574.865 190.673 573.924 189.703 573.07 188.486C572.766 188.066 572.447 187.864 572.085 187.864C571.868 187.864 571.651 187.936 571.492 188.095L568.031 190.716C567.713 191.02 567.553 191.339 567.553 191.672ZM624.63 188.776C624.905 188.776 625.122 188.892 625.281 189.109L628.032 192.483C628.249 192.758 628.365 193.033 628.365 193.293C628.365 193.568 628.22 193.844 627.945 194.104C625.933 195.871 623.935 197.145 621.936 197.927C619.938 198.709 617.795 199.099 615.508 199.099C612.409 199.099 609.514 198.303 606.791 196.71C604.069 195.118 601.898 192.96 600.276 190.253C598.654 187.545 597.843 184.591 597.843 181.421C597.843 178.192 598.596 175.224 600.102 172.502C601.608 169.794 603.693 167.637 606.357 166.044C609.021 164.451 612.004 163.655 615.305 163.655C617.984 163.655 620.633 164.306 623.254 165.61C625.875 166.913 628.032 168.911 629.755 171.575C631.464 174.253 632.332 177.526 632.332 181.421C632.332 182.304 632.231 182.941 632.028 183.332C631.826 183.723 631.551 183.969 631.203 184.041C630.856 184.128 630.32 184.172 629.581 184.172H605.401C605.778 185.793 606.444 187.212 607.428 188.428C608.384 189.645 609.615 190.615 611.019 191.266C612.438 191.947 613.959 192.28 615.595 192.28C616.854 192.28 617.94 192.15 618.852 191.903C619.765 191.657 620.532 191.353 621.111 191.006C621.792 190.586 622.458 190.137 623.095 189.645L623.906 189.022C624.152 188.848 624.398 188.776 624.644 188.761L624.63 188.776ZM611.208 171.227C609.919 171.879 608.775 172.791 607.848 173.906C606.907 175.021 606.183 176.295 605.691 177.685H624.948C624.137 175.455 622.892 173.66 621.198 172.299C619.504 170.938 617.549 170.257 615.363 170.257C613.915 170.257 612.496 170.59 611.208 171.242V171.227ZM643.626 163.959H639.731C639.022 163.959 638.66 164.35 638.66 165.117V197.362C638.66 198.115 639.022 198.491 639.731 198.491H645.291C646.044 198.491 646.406 198.115 646.391 197.362V178.452C646.391 176.744 646.71 175.31 647.362 174.138C648.013 172.979 648.853 172.111 649.866 171.546C650.866 170.981 652.009 170.692 653.153 170.706C654.326 170.706 655.397 170.909 656.368 171.329C657.381 171.763 658.337 172.284 659.249 172.907C659.567 173.139 659.842 173.24 660.089 173.24C660.364 173.24 660.61 173.095 660.827 172.791L663.361 169.215C663.564 168.954 663.665 168.694 663.665 168.447C663.665 168.114 663.462 167.738 663.042 167.347C662.014 166.464 660.697 165.61 659.118 164.799C657.54 163.988 655.832 163.568 653.993 163.568C652.284 163.568 650.721 163.973 649.302 164.784C647.883 165.595 646.724 166.724 645.827 168.201L645.291 165.248C645.204 164.697 645.016 164.35 644.741 164.205C644.466 164.06 644.089 163.973 643.626 163.973V163.959Z" fill="#315CFD"/>
<path d="M689.365 158.356H718.294C718.989 158.356 719.337 158.718 719.337 159.427V164.524C719.337 165.262 718.989 165.624 718.294 165.624H707.638V197.42C707.638 198.129 707.276 198.491 706.566 198.491H700.76C700.051 198.491 699.689 198.129 699.689 197.42V165.624H689.351C688.641 165.624 688.279 165.262 688.279 164.524V159.427C688.279 158.718 688.641 158.356 689.351 158.356H689.365Z" fill="#315CFD"/>
<path d="M745.109 188.776C745.384 188.776 745.601 188.892 745.761 189.109L748.526 192.483C748.758 192.758 748.859 193.033 748.859 193.293C748.859 193.568 748.714 193.844 748.439 194.104C746.427 195.871 744.429 197.145 742.431 197.927C740.432 198.709 738.29 199.099 735.987 199.099C732.889 199.099 729.979 198.303 727.257 196.71C724.534 195.118 722.363 192.96 720.741 190.253C719.119 187.545 718.309 184.592 718.309 181.421C718.309 178.192 719.061 175.224 720.582 172.502C722.088 169.794 724.187 167.637 726.851 166.044C729.515 164.451 732.498 163.655 735.814 163.655C738.492 163.655 741.142 164.306 743.763 165.61C746.383 166.913 748.555 168.911 750.264 171.575C751.987 174.254 752.841 177.526 752.841 181.421C752.841 182.304 752.74 182.941 752.537 183.332C752.334 183.723 752.059 183.969 751.712 184.056C751.364 184.143 750.828 184.186 750.09 184.186H725.867C726.243 185.808 726.909 187.212 727.894 188.443C728.864 189.659 730.08 190.629 731.484 191.281C732.903 191.961 734.424 192.294 736.06 192.294C737.319 192.294 738.405 192.164 739.332 191.918C740.259 191.672 741.012 191.368 741.605 191.02C742.3 190.6 742.952 190.151 743.589 189.659L744.4 189.037C744.646 188.863 744.892 188.776 745.138 188.776H745.109ZM731.687 171.242C730.398 171.893 729.255 172.806 728.314 173.921C727.372 175.035 726.648 176.31 726.156 177.7H745.442C744.631 175.47 743.386 173.66 741.678 172.299C739.984 170.938 738.029 170.257 735.828 170.257C734.38 170.257 732.947 170.59 731.658 171.242H731.687Z" fill="#315CFD"/>
<path d="M755.23 192.178C755.172 192.019 755.129 191.845 755.129 191.672C755.129 191.339 755.288 191.02 755.606 190.716L759.067 188.095C759.226 187.951 759.443 187.864 759.661 187.864C760.023 187.864 760.341 188.066 760.645 188.486C761.514 189.703 762.455 190.673 763.469 191.382C764.497 192.092 765.756 192.454 767.248 192.454C768.189 192.454 769.115 192.28 769.984 191.961C770.896 191.628 771.635 191.165 772.214 190.557C772.793 189.949 773.083 189.254 773.083 188.486C773.083 187.719 772.909 187.082 772.576 186.633C772.243 186.184 771.78 185.851 771.2 185.619C770.621 185.388 769.723 185.084 768.507 184.736C768.319 184.693 767.696 184.519 766.625 184.201C764.164 183.448 762.194 182.593 760.674 181.638C759.168 180.682 758.039 179.524 757.3 178.163C756.562 176.802 756.186 175.151 756.186 173.211C756.186 171.647 756.678 170.112 757.648 168.621C758.618 167.115 760.008 165.899 761.818 164.943C763.628 163.988 765.713 163.525 768.073 163.525C770.621 163.525 772.808 164.046 774.632 165.103C776.456 166.16 777.977 167.448 779.178 168.969C779.453 169.345 779.598 169.649 779.598 169.866C779.598 170.127 779.424 170.402 779.062 170.677L775.863 173.327C775.587 173.558 775.341 173.66 775.139 173.66C774.878 173.66 774.588 173.486 774.299 173.124C773.473 172.168 772.605 171.445 771.678 170.967C770.766 170.489 769.622 170.243 768.276 170.243C766.857 170.243 765.742 170.547 764.945 171.14C764.149 171.749 763.744 172.516 763.744 173.486C763.744 174.224 763.961 174.804 764.395 175.253C764.83 175.687 765.409 176.049 766.133 176.338C766.871 176.628 767.986 176.976 769.477 177.381C769.752 177.453 770.071 177.54 770.404 177.642C770.737 177.743 771.113 177.844 771.504 177.975C774.574 178.901 776.862 180.306 778.367 182.202C779.873 184.099 780.612 186.242 780.612 188.631C780.612 190.861 780.004 192.787 778.773 194.365C777.542 195.943 775.949 197.145 773.995 197.927C772.04 198.708 769.955 199.114 767.856 199.114C765.163 199.114 762.745 198.549 760.631 197.42C758.517 196.29 756.823 194.741 755.549 192.772C755.418 192.584 755.302 192.381 755.216 192.178H755.23Z" fill="#315CFD"/>
<path d="M799.159 164.22C799.927 164.22 800.318 164.61 800.318 165.407V169.881C800.318 170.257 800.202 170.547 799.956 170.75C799.709 170.952 799.405 171.054 799.058 171.054H795.163V187.878C795.163 189.094 795.38 190.065 795.815 190.788C796.249 191.512 797.002 191.903 798.102 191.961L798.971 192.019C799.594 192.063 799.97 192.222 800.129 192.511C800.289 192.816 800.361 193.163 800.361 193.51V197.333C800.361 198.231 799.666 198.68 798.276 198.68C796.177 198.68 794.294 198.274 792.644 197.478C790.993 196.667 789.719 195.509 788.792 194.003C787.866 192.497 787.417 190.731 787.417 188.703V171.068H784.289C783.985 171.068 783.696 170.952 783.479 170.764C783.232 170.561 783.117 170.272 783.117 169.895V165.508C783.117 165.088 783.232 164.784 783.464 164.567C783.696 164.35 783.985 164.234 784.289 164.248H787.417V158.602C787.417 158.211 787.489 157.921 787.648 157.747C787.793 157.574 788.097 157.429 788.517 157.313L794.048 155.706C794.15 155.677 794.251 155.662 794.352 155.648C794.468 155.648 794.598 155.677 794.7 155.735C794.801 155.793 794.902 155.88 794.96 155.981C795.105 156.213 795.178 156.502 795.178 156.85V164.248H799.188L799.159 164.22Z" fill="#315CFD"/>
<path d="M807.716 151.637H812.393C813.421 151.637 813.928 152.202 813.928 153.346V158.066C813.928 158.631 813.798 159.022 813.551 159.253C813.305 159.47 812.914 159.586 812.393 159.586H807.716C806.601 159.586 806.037 159.08 806.037 158.066V153.346C806.037 152.202 806.601 151.637 807.716 151.637ZM806.573 164.278C806.775 164.089 807.05 163.988 807.325 164.002H813.045C813.363 164.002 813.609 164.104 813.798 164.292C813.986 164.495 814.073 164.755 814.073 165.088V197.376C814.073 198.1 813.725 198.477 813.03 198.477H807.311C806.602 198.477 806.24 198.115 806.24 197.376V165.088C806.24 164.726 806.341 164.466 806.544 164.278H806.573Z" fill="#315CFD"/>
<path d="M827.466 198.173C827.147 198.39 826.771 198.491 826.38 198.477H821.399C820.632 198.477 820.241 198.086 820.241 197.318V165.103C820.241 164.335 820.632 163.944 821.399 163.944H825.062C825.439 163.944 825.801 164.089 826.076 164.335C826.365 164.596 826.582 164.943 826.669 165.32L827.118 169.2C828.407 167.347 829.999 165.957 831.882 165.045C833.75 164.133 835.791 163.669 837.862 163.684C839.947 163.684 841.974 164.205 843.943 165.262C845.926 166.319 847.548 167.941 848.837 170.127C850.125 172.328 850.762 175.035 850.762 178.264V197.318C850.762 198.071 850.4 198.448 849.691 198.448H844.261C843.494 198.448 843.103 198.071 843.103 197.318V178.51C843.103 177.222 842.77 175.976 842.118 174.804C841.481 173.645 840.54 172.675 839.425 171.995C838.282 171.285 837.007 170.938 835.603 170.938C834.387 170.938 833.185 171.256 831.983 171.908C830.781 172.559 829.811 173.486 829.058 174.702C828.305 175.919 827.915 177.309 827.915 178.887V197.304C827.915 197.666 827.755 197.941 827.451 198.144L827.466 198.173Z" fill="#315CFD"/>
<path d="M888.248 201.749C886.757 204.5 884.701 206.571 882.066 207.961C879.445 209.351 876.419 210.046 873.002 210.046C870.758 210.046 868.528 209.669 866.313 208.902C864.112 208.134 862.215 207.092 860.637 205.76C860.318 205.499 860.159 205.238 860.159 204.963C860.159 204.775 860.275 204.515 860.492 204.182L862.736 200.909C862.983 200.533 863.301 200.345 863.692 200.345C863.996 200.345 864.315 200.46 864.648 200.678C867.008 202.328 869.976 203.154 873.538 203.154C875.333 203.154 876.955 202.748 878.374 201.952C879.778 201.17 880.937 200.012 881.704 198.607C882.5 197.174 882.906 195.552 882.906 193.728V193.612C881.371 195.234 879.764 196.435 878.084 197.232C876.405 198.028 874.45 198.433 872.22 198.433C869.223 198.433 866.414 197.695 863.808 196.233C861.202 194.77 859.117 192.714 857.553 190.079C855.989 187.444 855.207 184.461 855.207 181.131C855.207 177.989 855.989 175.079 857.553 172.386C859.117 169.693 861.216 167.535 863.822 165.928C866.443 164.321 869.238 163.525 872.22 163.525C876.535 163.525 880.227 165.175 883.282 168.476L883.76 165.291C883.832 164.784 883.963 164.422 884.151 164.22C884.339 164.017 884.643 163.915 885.078 163.915H889.436C890.116 163.915 890.449 164.306 890.449 165.103V191.643C890.449 195.61 889.696 198.969 888.205 201.72L888.248 201.749ZM881.863 175.904C880.966 174.268 879.749 172.965 878.186 171.995C876.622 171.025 874.884 170.547 872.959 170.547C870.946 170.547 869.18 171.025 867.63 171.995C866.081 172.965 864.879 174.268 864.011 175.919C863.142 177.569 862.722 179.365 862.722 181.319C862.722 183.39 863.171 185.229 864.083 186.836C864.995 188.457 866.24 189.703 867.819 190.615C869.411 191.512 871.163 191.961 873.089 191.961C875.015 191.961 876.723 191.483 878.272 190.528C879.822 189.572 881.009 188.269 881.892 186.619C882.761 184.968 883.195 183.187 883.195 181.247C883.195 179.307 882.746 177.526 881.863 175.89V175.904Z" fill="#315CFD"/>
<path d="M897.037 164.002C894.88 164.002 893.084 165.74 893.084 167.955C893.084 170.17 894.865 171.908 897.037 171.908C899.209 171.908 900.99 170.17 900.99 167.955C900.99 165.74 899.252 164.002 897.037 164.002ZM897.037 171.068C895.372 171.068 893.968 169.649 893.968 167.955C893.968 166.261 895.387 164.842 897.037 164.842C898.688 164.842 900.107 166.218 900.107 167.955C900.107 169.693 898.688 171.068 897.037 171.068Z" fill="#315CFD"/>
<path d="M895.517 165.798C895.517 165.798 895.56 165.769 895.604 165.769H897.443C897.703 165.769 897.935 165.841 898.138 165.972C898.34 166.102 898.514 166.276 898.63 166.493C898.746 166.71 898.804 166.942 898.804 167.188C898.804 167.434 898.731 167.651 898.601 167.868C898.471 168.085 898.282 168.259 898.065 168.375L898.862 169.939C898.862 169.939 898.862 169.968 898.862 169.982C898.862 170.011 898.862 170.026 898.833 170.04C898.818 170.04 898.804 170.069 898.775 170.069H898.022C898.022 170.069 897.964 170.069 897.949 170.055C897.935 170.055 897.906 170.011 897.892 169.968L897.196 168.578H896.313V169.953C896.313 170.026 896.27 170.069 896.197 170.069H895.575C895.502 170.069 895.459 170.026 895.459 169.953V165.87C895.459 165.87 895.459 165.812 895.488 165.783L895.517 165.798ZM896.328 167.839H897.225C897.356 167.839 897.486 167.81 897.587 167.752C897.689 167.694 897.776 167.608 897.848 167.506C897.906 167.405 897.935 167.289 897.935 167.159C897.935 167.028 897.906 166.927 897.848 166.811C897.79 166.71 897.703 166.623 897.587 166.565C897.486 166.507 897.356 166.478 897.225 166.478H896.328V167.839Z" fill="#315CFD"/>
</svg>
